<svg width="29" height="29" viewBox="0 0 29 29" fill="none" xmlns="http://www.w3.org/2000/svg">
<g clip-path="url(#clip0_6_157)">
<mask id="mask0_6_157" style="mask-type:luminance" maskUnits="userSpaceOnUse" x="0" y="0" width="29" height="29">
<path d="M29 0H0V29H29V0Z" fill="white"/>
</mask>
<g mask="url(#mask0_6_157)">
<path d="M1 14.5H28M1 14.5C1 21.9559 7.04416 28 14.5 28M1 14.5C1 7.04416 7.04416 1 14.5 1M28 14.5C28 21.9559 21.9559 28 14.5 28M28 14.5C28 7.04416 21.9559 1 14.5 1M14.5 28C3.63341 16.12 9.97226 5.05 14.5 1M14.5 28C25.3666 16.12 19.0278 5.05 14.5 1" stroke="#49FDC1" stroke-width="2" stroke-linecap="round" stroke-linejoin="round"/>
</g>
</g>
<defs>
<clipPath id="clip0_6_157">
<rect width="29" height="29" fill="white"/>
</clipPath>
</defs>
</svg>
