<svg width="34" height="34" viewBox="0 0 34 34" fill="none" xmlns="http://www.w3.org/2000/svg">
<g clip-path="url(#clip0_6_282)">
<mask id="mask0_6_282" style="mask-type:luminance" maskUnits="userSpaceOnUse" x="0" y="0" width="34" height="34">
<path d="M33.5 0.5H0.5V33.5H33.5V0.5Z" fill="white"/>
</mask>
<g mask="url(#mask0_6_282)">
<path fill-rule="evenodd" clip-rule="evenodd" d="M17 33.5C26.1126 33.5 33.5 26.1126 33.5 17C33.5 7.8873 26.1126 0.5 17 0.5C7.8873 0.5 0.5 7.8873 0.5 17C0.5 26.1126 7.8873 33.5 17 33.5ZM14.8443 23.3456L22.6326 18.7473C23.9224 17.9857 23.9224 16.0143 22.6326 15.2526L14.8443 10.6544C13.5906 9.91426 12.05 10.8776 12.05 12.4017V21.5982C12.05 23.1223 13.5906 24.0858 14.8443 23.3456Z" fill="white"/>
</g>
</g>
<defs>
<clipPath id="clip0_6_282">
<rect width="34" height="34" fill="white"/>
</clipPath>
</defs>
</svg>
