<svg width="1000" height="1000" viewBox="0 0 1000 1000" fill="none" xmlns="http://www.w3.org/2000/svg">
<g clip-path="url(#clip0_540_16)">
<path d="M996 4H4V996H996V4Z" fill="black" stroke="#11D7FF" stroke-width="8"/>
<path d="M246.728 554.909V664H226.806L179.345 595.339H178.546V664H155.482V554.909H175.723L222.811 623.517H223.77V554.909H246.728ZM366.033 609.455C366.033 621.351 363.778 631.472 359.268 639.817C354.794 648.162 348.686 654.536 340.944 658.94C333.238 663.308 324.573 665.491 314.95 665.491C305.255 665.491 296.555 663.29 288.849 658.886C281.143 654.483 275.053 648.109 270.578 639.763C266.104 631.418 263.867 621.315 263.867 609.455C263.867 597.558 266.104 587.438 270.578 579.092C275.053 570.747 281.143 564.391 288.849 560.023C296.555 555.619 305.255 553.418 314.95 553.418C324.573 553.418 333.238 555.619 340.944 560.023C348.686 564.391 354.794 570.747 359.268 579.092C363.778 587.438 366.033 597.558 366.033 609.455ZM342.649 609.455C342.649 601.749 341.494 595.25 339.186 589.959C336.914 584.668 333.7 580.655 329.545 577.92C325.39 575.186 320.525 573.819 314.95 573.819C309.374 573.819 304.509 575.186 300.355 577.92C296.2 580.655 292.968 584.668 290.66 589.959C288.387 595.25 287.251 601.749 287.251 609.455C287.251 617.161 288.387 623.659 290.66 628.95C292.968 634.241 296.2 638.254 300.355 640.989C304.509 643.723 309.374 645.09 314.95 645.09C320.525 645.09 325.39 643.723 329.545 640.989C333.7 638.254 336.914 634.241 339.186 628.95C341.494 623.659 342.649 617.161 342.649 609.455ZM440.9 554.909V664H417.835V554.909H440.9ZM459.876 554.909H488.321L518.363 628.205H519.642L549.684 554.909H578.129V664H555.757V592.995H554.851L526.62 663.467H511.385L483.154 592.729H482.248V664H459.876V554.909ZM615.935 664H591.219L628.879 554.909H658.602L696.209 664H671.493L644.167 579.838H643.314L615.935 664ZM614.39 621.12H672.771V639.124H614.39V621.12ZM776.549 590.172C775.803 587.58 774.755 585.289 773.406 583.3C772.056 581.276 770.405 579.572 768.452 578.187C766.534 576.766 764.333 575.683 761.847 574.938C759.397 574.192 756.68 573.819 753.697 573.819C748.122 573.819 743.221 575.204 738.995 577.974C734.805 580.744 731.538 584.774 729.194 590.065C726.85 595.321 725.679 601.749 725.679 609.348C725.679 616.947 726.833 623.411 729.141 628.737C731.449 634.064 734.716 638.13 738.942 640.935C743.168 643.705 748.157 645.09 753.91 645.09C759.13 645.09 763.587 644.167 767.28 642.32C771.009 640.438 773.85 637.793 775.803 634.384C777.792 630.974 778.786 626.944 778.786 622.292L783.473 622.984H755.348V605.619H800.998V619.362C800.998 628.95 798.974 637.189 794.926 644.078C790.877 650.932 785.302 656.223 778.2 659.952C771.098 663.645 762.966 665.491 753.804 665.491C743.576 665.491 734.592 663.237 726.85 658.727C719.109 654.181 713.072 647.736 708.74 639.391C704.443 631.01 702.294 621.067 702.294 609.561C702.294 600.719 703.573 592.835 706.13 585.911C708.722 578.95 712.344 573.055 716.996 568.226C721.648 563.396 727.064 559.721 733.243 557.2C739.422 554.678 746.115 553.418 753.324 553.418C759.503 553.418 765.256 554.323 770.583 556.134C775.909 557.91 780.632 560.431 784.752 563.698C788.907 566.965 792.298 570.854 794.926 575.364C797.554 579.838 799.24 584.774 799.986 590.172H776.549ZM818.323 664V554.909H891.832V573.925H841.388V599.92H888.05V618.936H841.388V644.984H892.045V664H818.323Z" fill="#11D7FF"/>
<path d="M118.775 766.975V760.636H148.64V766.975H137.507V797H129.907V766.975H118.775ZM160.98 781.233V797H153.416V760.636H160.767V774.539H161.086C161.702 772.929 162.696 771.669 164.069 770.757C165.442 769.834 167.165 769.372 169.236 769.372C171.13 769.372 172.781 769.786 174.19 770.615C175.611 771.432 176.711 772.61 177.493 774.148C178.286 775.675 178.676 777.504 178.664 779.635V797H171.101V780.984C171.112 779.304 170.686 777.996 169.822 777.06C168.97 776.125 167.774 775.658 166.236 775.658C165.206 775.658 164.294 775.877 163.501 776.315C162.72 776.753 162.104 777.392 161.655 778.232C161.217 779.061 160.992 780.061 160.98 781.233ZM184.617 797V769.727H192.181V797H184.617ZM188.417 766.212C187.292 766.212 186.328 765.839 185.523 765.093C184.73 764.335 184.333 763.43 184.333 762.376C184.333 761.335 184.73 760.441 185.523 759.695C186.328 758.938 187.292 758.559 188.417 758.559C189.541 758.559 190.5 758.938 191.293 759.695C192.098 760.441 192.501 761.335 192.501 762.376C192.501 763.43 192.098 764.335 191.293 765.093C190.5 765.839 189.541 766.212 188.417 766.212ZM220.932 777.504L214.007 777.93C213.889 777.339 213.634 776.806 213.244 776.332C212.853 775.847 212.338 775.462 211.699 775.178C211.072 774.882 210.32 774.734 209.444 774.734C208.272 774.734 207.284 774.983 206.479 775.48C205.674 775.965 205.271 776.616 205.271 777.433C205.271 778.084 205.532 778.635 206.053 779.085C206.573 779.534 207.467 779.895 208.734 780.168L213.67 781.162C216.321 781.706 218.298 782.582 219.6 783.79C220.902 784.997 221.553 786.583 221.553 788.548C221.553 790.336 221.027 791.904 219.973 793.254C218.931 794.603 217.499 795.656 215.676 796.414C213.865 797.16 211.776 797.533 209.408 797.533C205.798 797.533 202.922 796.781 200.779 795.278C198.649 793.763 197.4 791.703 197.033 789.099L204.472 788.708C204.697 789.809 205.242 790.649 206.106 791.229C206.97 791.798 208.077 792.082 209.426 792.082C210.752 792.082 211.817 791.827 212.622 791.318C213.439 790.797 213.853 790.129 213.865 789.312C213.853 788.625 213.563 788.063 212.995 787.625C212.427 787.175 211.551 786.832 210.367 786.595L205.644 785.654C202.981 785.121 200.998 784.198 199.696 782.884C198.406 781.57 197.761 779.895 197.761 777.859C197.761 776.107 198.234 774.598 199.181 773.332C200.14 772.065 201.483 771.089 203.212 770.402C204.952 769.715 206.988 769.372 209.32 769.372C212.764 769.372 215.475 770.1 217.452 771.556C219.44 773.012 220.6 774.995 220.932 777.504ZM268.446 760.636V797H261.805L245.985 774.113H245.719V797H238.031V760.636H244.778L260.474 783.506H260.793V760.636H268.446ZM274.798 797V760.636H298.875V766.975H282.486V775.64H297.277V781.979H282.486V797H274.798ZM302.661 766.975V760.636H332.526V766.975H321.394V797H313.794V766.975H302.661ZM358.925 797.444C356.853 797.444 354.977 796.911 353.296 795.846C351.627 794.769 350.301 793.188 349.319 791.105C348.348 789.01 347.863 786.441 347.863 783.399C347.863 780.274 348.366 777.676 349.372 775.604C350.378 773.521 351.716 771.964 353.385 770.935C355.066 769.893 356.906 769.372 358.907 769.372C360.434 769.372 361.706 769.633 362.724 770.153C363.754 770.662 364.583 771.302 365.21 772.071C365.849 772.829 366.335 773.574 366.666 774.308H366.897V760.636H374.443V797H366.986V792.632H366.666C366.311 793.39 365.808 794.141 365.157 794.887C364.518 795.621 363.683 796.231 362.653 796.716C361.635 797.201 360.392 797.444 358.925 797.444ZM361.322 791.425C362.541 791.425 363.571 791.093 364.411 790.43C365.263 789.756 365.914 788.815 366.364 787.607C366.826 786.4 367.057 784.985 367.057 783.364C367.057 781.742 366.832 780.333 366.382 779.138C365.932 777.942 365.281 777.019 364.429 776.368C363.577 775.717 362.541 775.391 361.322 775.391C360.079 775.391 359.031 775.729 358.179 776.403C357.327 777.078 356.681 778.013 356.243 779.209C355.806 780.404 355.587 781.789 355.587 783.364C355.587 784.95 355.806 786.353 356.243 787.572C356.693 788.779 357.338 789.726 358.179 790.413C359.031 791.087 360.079 791.425 361.322 791.425ZM392.984 797.533C390.226 797.533 387.841 796.947 385.829 795.775C383.828 794.591 382.284 792.946 381.195 790.839C380.106 788.72 379.561 786.264 379.561 783.47C379.561 780.653 380.106 778.191 381.195 776.084C382.284 773.965 383.828 772.32 385.829 771.148C387.841 769.964 390.226 769.372 392.984 769.372C395.742 769.372 398.122 769.964 400.122 771.148C402.135 772.32 403.685 773.965 404.774 776.084C405.863 778.191 406.408 780.653 406.408 783.47C406.408 786.264 405.863 788.72 404.774 790.839C403.685 792.946 402.135 794.591 400.122 795.775C398.122 796.947 395.742 797.533 392.984 797.533ZM393.02 791.673C394.275 791.673 395.322 791.318 396.163 790.608C397.003 789.886 397.636 788.903 398.063 787.661C398.501 786.418 398.72 785.003 398.72 783.417C398.72 781.831 398.501 780.416 398.063 779.173C397.636 777.93 397.003 776.948 396.163 776.226C395.322 775.504 394.275 775.143 393.02 775.143C391.753 775.143 390.688 775.504 389.824 776.226C388.972 776.948 388.327 777.93 387.889 779.173C387.462 780.416 387.249 781.831 387.249 783.417C387.249 785.003 387.462 786.418 387.889 787.661C388.327 788.903 388.972 789.886 389.824 790.608C390.688 791.318 391.753 791.673 393.02 791.673ZM423.755 797.533C420.95 797.533 418.535 796.964 416.511 795.828C414.498 794.68 412.948 793.058 411.859 790.963C410.77 788.856 410.225 786.364 410.225 783.488C410.225 780.683 410.77 778.22 411.859 776.102C412.948 773.983 414.481 772.331 416.457 771.148C418.446 769.964 420.778 769.372 423.453 769.372C425.252 769.372 426.927 769.662 428.478 770.242C430.041 770.81 431.402 771.669 432.562 772.817C433.734 773.965 434.645 775.409 435.296 777.149C435.947 778.877 436.273 780.902 436.273 783.222V785.299H413.244V780.612H429.153C429.153 779.522 428.916 778.558 428.443 777.717C427.969 776.877 427.312 776.22 426.472 775.746C425.643 775.261 424.678 775.018 423.577 775.018C422.429 775.018 421.411 775.285 420.524 775.817C419.648 776.338 418.961 777.043 418.464 777.93C417.967 778.806 417.712 779.783 417.7 780.86V785.317C417.7 786.666 417.949 787.832 418.446 788.815C418.955 789.797 419.671 790.555 420.595 791.087C421.518 791.62 422.613 791.886 423.879 791.886C424.72 791.886 425.489 791.768 426.188 791.531C426.886 791.295 427.484 790.939 427.981 790.466C428.478 789.992 428.857 789.412 429.117 788.726L436.113 789.188C435.758 790.868 435.03 792.336 433.929 793.591C432.84 794.834 431.431 795.804 429.703 796.503C427.987 797.189 426.004 797.533 423.755 797.533ZM463.901 777.504L456.976 777.93C456.858 777.339 456.603 776.806 456.212 776.332C455.822 775.847 455.307 775.462 454.668 775.178C454.04 774.882 453.289 774.734 452.413 774.734C451.241 774.734 450.252 774.983 449.448 775.48C448.643 775.965 448.24 776.616 448.24 777.433C448.24 778.084 448.501 778.635 449.021 779.085C449.542 779.534 450.436 779.895 451.702 780.168L456.639 781.162C459.29 781.706 461.267 782.582 462.569 783.79C463.871 784.997 464.522 786.583 464.522 788.548C464.522 790.336 463.995 791.904 462.942 793.254C461.9 794.603 460.468 795.656 458.645 796.414C456.834 797.16 454.745 797.533 452.377 797.533C448.767 797.533 445.89 796.781 443.748 795.278C441.617 793.763 440.368 791.703 440.001 789.099L447.441 788.708C447.666 789.809 448.211 790.649 449.075 791.229C449.939 791.798 451.046 792.082 452.395 792.082C453.721 792.082 454.786 791.827 455.591 791.318C456.408 790.797 456.822 790.129 456.834 789.312C456.822 788.625 456.532 788.063 455.964 787.625C455.396 787.175 454.52 786.832 453.336 786.595L448.613 785.654C445.95 785.121 443.967 784.198 442.665 782.884C441.375 781.57 440.729 779.895 440.729 777.859C440.729 776.107 441.203 774.598 442.15 773.332C443.109 772.065 444.452 771.089 446.18 770.402C447.921 769.715 449.957 769.372 452.288 769.372C455.733 769.372 458.444 770.1 460.421 771.556C462.409 773.012 463.569 774.995 463.901 777.504ZM488.421 781.233V797H480.857V769.727H488.066V774.539H488.386C488.989 772.953 490.001 771.698 491.422 770.775C492.842 769.84 494.565 769.372 496.589 769.372C498.483 769.372 500.134 769.786 501.543 770.615C502.951 771.444 504.046 772.627 504.827 774.166C505.609 775.693 505.999 777.516 505.999 779.635V797H498.435V780.984C498.447 779.315 498.021 778.013 497.157 777.078C496.293 776.131 495.103 775.658 493.588 775.658C492.57 775.658 491.671 775.877 490.889 776.315C490.12 776.753 489.516 777.392 489.078 778.232C488.652 779.061 488.433 780.061 488.421 781.233ZM524.283 797.533C521.525 797.533 519.14 796.947 517.128 795.775C515.127 794.591 513.583 792.946 512.493 790.839C511.404 788.72 510.86 786.264 510.86 783.47C510.86 780.653 511.404 778.191 512.493 776.084C513.583 773.965 515.127 772.32 517.128 771.148C519.14 769.964 521.525 769.372 524.283 769.372C527.041 769.372 529.421 769.964 531.421 771.148C533.433 772.32 534.984 773.965 536.073 776.084C537.162 778.191 537.707 780.653 537.707 783.47C537.707 786.264 537.162 788.72 536.073 790.839C534.984 792.946 533.433 794.591 531.421 795.775C529.421 796.947 527.041 797.533 524.283 797.533ZM524.319 791.673C525.574 791.673 526.621 791.318 527.462 790.608C528.302 789.886 528.935 788.903 529.361 787.661C529.799 786.418 530.018 785.003 530.018 783.417C530.018 781.831 529.799 780.416 529.361 779.173C528.935 777.93 528.302 776.948 527.462 776.226C526.621 775.504 525.574 775.143 524.319 775.143C523.052 775.143 521.987 775.504 521.123 776.226C520.27 776.948 519.625 777.93 519.187 779.173C518.761 780.416 518.548 781.831 518.548 783.417C518.548 785.003 518.761 786.418 519.187 787.661C519.625 788.903 520.27 789.886 521.123 790.608C521.987 791.318 523.052 791.673 524.319 791.673ZM557.131 769.727V775.409H540.707V769.727H557.131ZM544.436 763.193H552V788.619C552 789.318 552.106 789.862 552.319 790.253C552.533 790.632 552.828 790.898 553.207 791.052C553.598 791.206 554.048 791.283 554.557 791.283C554.912 791.283 555.267 791.253 555.622 791.194C555.977 791.123 556.249 791.07 556.439 791.034L557.628 796.663C557.25 796.781 556.717 796.917 556.03 797.071C555.344 797.237 554.509 797.337 553.527 797.373C551.704 797.444 550.106 797.201 548.733 796.645C547.372 796.089 546.312 795.224 545.555 794.053C544.797 792.881 544.424 791.401 544.436 789.614V763.193ZM581.195 781.233V797H573.631V760.636H580.982V774.539H581.301C581.917 772.929 582.911 771.669 584.284 770.757C585.657 769.834 587.38 769.372 589.451 769.372C591.345 769.372 592.996 769.786 594.405 770.615C595.825 771.432 596.926 772.61 597.707 774.148C598.501 775.675 598.891 777.504 598.879 779.635V797H591.315V780.984C591.327 779.304 590.901 777.996 590.037 777.06C589.185 776.125 587.989 775.658 586.45 775.658C585.421 775.658 584.509 775.877 583.716 776.315C582.935 776.753 582.319 777.392 581.869 778.232C581.431 779.061 581.207 780.061 581.195 781.233ZM612.609 797.515C610.869 797.515 609.318 797.213 607.957 796.609C606.596 795.994 605.518 795.088 604.725 793.893C603.944 792.685 603.554 791.182 603.554 789.383C603.554 787.868 603.832 786.595 604.388 785.565C604.944 784.536 605.702 783.707 606.661 783.08C607.62 782.452 608.709 781.979 609.928 781.659C611.159 781.339 612.449 781.115 613.799 780.984C615.385 780.819 616.663 780.665 617.634 780.523C618.604 780.369 619.309 780.144 619.747 779.848C620.185 779.552 620.404 779.114 620.404 778.534V778.428C620.404 777.303 620.049 776.433 619.338 775.817C618.64 775.202 617.646 774.894 616.355 774.894C614.994 774.894 613.911 775.196 613.106 775.8C612.301 776.392 611.768 777.137 611.508 778.037L604.512 777.469C604.867 775.812 605.566 774.379 606.607 773.172C607.649 771.953 608.993 771.018 610.638 770.366C612.295 769.704 614.213 769.372 616.391 769.372C617.906 769.372 619.356 769.55 620.741 769.905C622.138 770.26 623.375 770.81 624.452 771.556C625.541 772.302 626.399 773.261 627.027 774.433C627.654 775.593 627.968 776.983 627.968 778.605V797H620.794V793.218H620.581C620.143 794.07 619.557 794.822 618.823 795.473C618.089 796.112 617.208 796.615 616.178 796.982C615.148 797.337 613.958 797.515 612.609 797.515ZM614.775 792.295C615.888 792.295 616.87 792.076 617.723 791.638C618.575 791.188 619.244 790.584 619.729 789.827C620.214 789.069 620.457 788.211 620.457 787.252V784.358C620.22 784.512 619.895 784.654 619.48 784.784C619.078 784.902 618.622 785.015 618.113 785.121C617.604 785.216 617.095 785.305 616.586 785.388C616.077 785.459 615.616 785.524 615.201 785.583C614.313 785.713 613.538 785.92 612.875 786.205C612.212 786.489 611.697 786.873 611.33 787.359C610.964 787.832 610.78 788.424 610.78 789.134C610.78 790.164 611.153 790.951 611.899 791.496C612.656 792.028 613.615 792.295 614.775 792.295ZM658.285 769.727L648.751 797H640.228L630.693 769.727H638.683L644.347 789.241H644.631L650.278 769.727H658.285ZM673.706 797.533C670.901 797.533 668.486 796.964 666.462 795.828C664.45 794.68 662.899 793.058 661.81 790.963C660.721 788.856 660.176 786.364 660.176 783.488C660.176 780.683 660.721 778.22 661.81 776.102C662.899 773.983 664.432 772.331 666.409 771.148C668.397 769.964 670.729 769.372 673.404 769.372C675.204 769.372 676.879 769.662 678.429 770.242C679.992 770.81 681.353 771.669 682.513 772.817C683.685 773.965 684.596 775.409 685.247 777.149C685.898 778.877 686.224 780.902 686.224 783.222V785.299H663.195V780.612H679.104C679.104 779.522 678.867 778.558 678.394 777.717C677.92 776.877 677.263 776.22 676.423 775.746C675.594 775.261 674.63 775.018 673.529 775.018C672.38 775.018 671.362 775.285 670.475 775.817C669.599 776.338 668.912 777.043 668.415 777.93C667.918 778.806 667.663 779.783 667.652 780.86V785.317C667.652 786.666 667.9 787.832 668.397 788.815C668.906 789.797 669.622 790.555 670.546 791.087C671.469 791.62 672.564 791.886 673.83 791.886C674.671 791.886 675.44 791.768 676.139 791.531C676.837 791.295 677.435 790.939 677.932 790.466C678.429 789.992 678.808 789.412 679.068 788.726L686.064 789.188C685.709 790.868 684.981 792.336 683.88 793.591C682.791 794.834 681.383 795.804 679.654 796.503C677.938 797.189 675.955 797.533 673.706 797.533ZM710.509 797.515C708.769 797.515 707.219 797.213 705.857 796.609C704.496 795.994 703.419 795.088 702.626 793.893C701.845 792.685 701.454 791.182 701.454 789.383C701.454 787.868 701.732 786.595 702.288 785.565C702.845 784.536 703.602 783.707 704.561 783.08C705.52 782.452 706.609 781.979 707.828 781.659C709.059 781.339 710.349 781.115 711.699 780.984C713.285 780.819 714.564 780.665 715.534 780.523C716.505 780.369 717.209 780.144 717.647 779.848C718.085 779.552 718.304 779.114 718.304 778.534V778.428C718.304 777.303 717.949 776.433 717.239 775.817C716.54 775.202 715.546 774.894 714.256 774.894C712.894 774.894 711.811 775.196 711.006 775.8C710.202 776.392 709.669 777.137 709.408 778.037L702.413 777.469C702.768 775.812 703.466 774.379 704.508 773.172C705.55 771.953 706.893 771.018 708.538 770.366C710.196 769.704 712.113 769.372 714.291 769.372C715.806 769.372 717.256 769.55 718.641 769.905C720.038 770.26 721.275 770.81 722.352 771.556C723.441 772.302 724.3 773.261 724.927 774.433C725.554 775.593 725.868 776.983 725.868 778.605V797H718.695V793.218H718.482C718.044 794.07 717.458 794.822 716.724 795.473C715.99 796.112 715.108 796.615 714.078 796.982C713.048 797.337 711.859 797.515 710.509 797.515ZM712.675 792.295C713.788 792.295 714.771 792.076 715.623 791.638C716.475 791.188 717.144 790.584 717.629 789.827C718.115 789.069 718.357 788.211 718.357 787.252V784.358C718.121 784.512 717.795 784.654 717.381 784.784C716.978 784.902 716.523 785.015 716.014 785.121C715.505 785.216 714.996 785.305 714.487 785.388C713.978 785.459 713.516 785.524 713.102 785.583C712.214 785.713 711.439 785.92 710.776 786.205C710.113 786.489 709.598 786.873 709.231 787.359C708.864 787.832 708.68 788.424 708.68 789.134C708.68 790.164 709.053 790.951 709.799 791.496C710.557 792.028 711.515 792.295 712.675 792.295ZM739.3 781.233V797H731.736V769.727H738.945V774.539H739.265C739.868 772.953 740.88 771.698 742.301 770.775C743.721 769.84 745.444 769.372 747.468 769.372C749.362 769.372 751.013 769.786 752.422 770.615C753.83 771.444 754.925 772.627 755.706 774.166C756.488 775.693 756.878 777.516 756.878 779.635V797H749.314V780.984C749.326 779.315 748.9 778.013 748.036 777.078C747.172 776.131 745.982 775.658 744.467 775.658C743.449 775.658 742.549 775.877 741.768 776.315C740.999 776.753 740.395 777.392 739.957 778.232C739.531 779.061 739.312 780.061 739.3 781.233ZM774.412 797V769.727H781.976V797H774.412ZM778.212 766.212C777.087 766.212 776.122 765.839 775.318 765.093C774.524 764.335 774.128 763.43 774.128 762.376C774.128 761.335 774.524 760.441 775.318 759.695C776.122 758.938 777.087 758.559 778.212 758.559C779.336 758.559 780.295 758.938 781.088 759.695C781.893 760.441 782.296 761.335 782.296 762.376C782.296 763.43 781.893 764.335 781.088 765.093C780.295 765.839 779.336 766.212 778.212 766.212ZM788.035 797V769.727H795.244V774.539H795.563C796.132 772.941 797.079 771.68 798.404 770.757C799.73 769.834 801.316 769.372 803.163 769.372C805.033 769.372 806.625 769.84 807.939 770.775C809.253 771.698 810.129 772.953 810.567 774.539H810.851C811.407 772.977 812.414 771.728 813.87 770.793C815.337 769.846 817.072 769.372 819.072 769.372C821.617 769.372 823.683 770.183 825.269 771.805C826.867 773.415 827.666 775.699 827.666 778.658V797H820.12V780.15C820.12 778.635 819.717 777.498 818.912 776.741C818.107 775.983 817.101 775.604 815.894 775.604C814.521 775.604 813.449 776.042 812.68 776.918C811.911 777.782 811.526 778.925 811.526 780.345V797H804.193V779.99C804.193 778.652 803.808 777.587 803.039 776.794C802.281 776.001 801.281 775.604 800.038 775.604C799.197 775.604 798.44 775.817 797.765 776.244C797.102 776.658 796.576 777.244 796.185 778.001C795.794 778.747 795.599 779.623 795.599 780.629V797H788.035ZM841.418 797.515C839.677 797.515 838.127 797.213 836.766 796.609C835.404 795.994 834.327 795.088 833.534 793.893C832.753 792.685 832.362 791.182 832.362 789.383C832.362 787.868 832.64 786.595 833.197 785.565C833.753 784.536 834.511 783.707 835.469 783.08C836.428 782.452 837.517 781.979 838.736 781.659C839.967 781.339 841.258 781.115 842.607 780.984C844.193 780.819 845.472 780.665 846.442 780.523C847.413 780.369 848.117 780.144 848.555 779.848C848.993 779.552 849.212 779.114 849.212 778.534V778.428C849.212 777.303 848.857 776.433 848.147 775.817C847.449 775.202 846.454 774.894 845.164 774.894C843.803 774.894 842.72 775.196 841.915 775.8C841.11 776.392 840.577 777.137 840.317 778.037L833.321 777.469C833.676 775.812 834.374 774.379 835.416 773.172C836.458 771.953 837.801 771.018 839.447 770.366C841.104 769.704 843.021 769.372 845.199 769.372C846.715 769.372 848.165 769.55 849.55 769.905C850.946 770.26 852.183 770.81 853.261 771.556C854.35 772.302 855.208 773.261 855.835 774.433C856.462 775.593 856.776 776.983 856.776 778.605V797H849.603V793.218H849.39C848.952 794.07 848.366 794.822 847.632 795.473C846.898 796.112 846.016 796.615 844.986 796.982C843.957 797.337 842.767 797.515 841.418 797.515ZM843.584 792.295C844.696 792.295 845.679 792.076 846.531 791.638C847.383 791.188 848.052 790.584 848.538 789.827C849.023 789.069 849.266 788.211 849.266 787.252V784.358C849.029 784.512 848.703 784.654 848.289 784.784C847.886 784.902 847.431 785.015 846.922 785.121C846.413 785.216 845.904 785.305 845.395 785.388C844.886 785.459 844.424 785.524 844.01 785.583C843.122 785.713 842.347 785.92 841.684 786.205C841.021 786.489 840.506 786.873 840.139 787.359C839.772 787.832 839.589 788.424 839.589 789.134C839.589 790.164 839.962 790.951 840.707 791.496C841.465 792.028 842.424 792.295 843.584 792.295ZM874.931 807.795C872.481 807.795 870.38 807.458 868.628 806.783C866.888 806.121 865.503 805.215 864.473 804.067C863.443 802.919 862.775 801.628 862.467 800.196L869.463 799.255C869.676 799.799 870.013 800.308 870.475 800.782C870.936 801.255 871.546 801.634 872.304 801.918C873.073 802.214 874.008 802.362 875.109 802.362C876.754 802.362 878.11 801.96 879.175 801.155C880.252 800.362 880.791 799.03 880.791 797.16V792.17H880.471C880.14 792.928 879.643 793.644 878.98 794.319C878.317 794.994 877.464 795.544 876.423 795.97C875.381 796.396 874.138 796.609 872.694 796.609C870.646 796.609 868.782 796.136 867.101 795.189C865.432 794.23 864.1 792.768 863.106 790.803C862.124 788.826 861.632 786.329 861.632 783.31C861.632 780.221 862.135 777.64 863.142 775.569C864.148 773.497 865.485 771.947 867.154 770.917C868.835 769.887 870.676 769.372 872.676 769.372C874.203 769.372 875.482 769.633 876.512 770.153C877.541 770.662 878.37 771.302 878.997 772.071C879.637 772.829 880.128 773.574 880.471 774.308H880.755V769.727H888.266V797.266C888.266 799.586 887.698 801.528 886.561 803.09C885.425 804.653 883.851 805.825 881.838 806.606C879.838 807.399 877.536 807.795 874.931 807.795ZM875.091 790.928C876.31 790.928 877.34 790.626 878.181 790.022C879.033 789.406 879.684 788.531 880.134 787.394C880.595 786.246 880.826 784.873 880.826 783.275C880.826 781.677 880.601 780.292 880.152 779.12C879.702 777.936 879.051 777.019 878.198 776.368C877.346 775.717 876.31 775.391 875.091 775.391C873.848 775.391 872.801 775.729 871.948 776.403C871.096 777.066 870.451 777.99 870.013 779.173C869.575 780.357 869.356 781.724 869.356 783.275C869.356 784.849 869.575 786.21 870.013 787.359C870.463 788.495 871.108 789.377 871.948 790.004C872.801 790.62 873.848 790.928 875.091 790.928ZM906.714 797.533C903.909 797.533 901.494 796.964 899.47 795.828C897.457 794.68 895.907 793.058 894.818 790.963C893.729 788.856 893.184 786.364 893.184 783.488C893.184 780.683 893.729 778.22 894.818 776.102C895.907 773.983 897.44 772.331 899.416 771.148C901.405 769.964 903.737 769.372 906.412 769.372C908.211 769.372 909.886 769.662 911.437 770.242C913 770.81 914.361 771.669 915.521 772.817C916.693 773.965 917.604 775.409 918.255 777.149C918.906 778.877 919.232 780.902 919.232 783.222V785.299H896.203V780.612H912.112C912.112 779.522 911.875 778.558 911.402 777.717C910.928 776.877 910.271 776.22 909.431 775.746C908.602 775.261 907.637 775.018 906.536 775.018C905.388 775.018 904.37 775.285 903.482 775.817C902.607 776.338 901.92 777.043 901.423 777.93C900.926 778.806 900.671 779.783 900.659 780.86V785.317C900.659 786.666 900.908 787.832 901.405 788.815C901.914 789.797 902.63 790.555 903.554 791.087C904.477 791.62 905.572 791.886 906.838 791.886C907.679 791.886 908.448 791.768 909.147 791.531C909.845 791.295 910.443 790.939 910.94 790.466C911.437 789.992 911.816 789.412 912.076 788.726L919.072 789.188C918.717 790.868 917.989 792.336 916.888 793.591C915.799 794.834 914.39 795.804 912.662 796.503C910.946 797.189 908.963 797.533 906.714 797.533Z" fill="#11D7FF"/>
<path d="M549.18 366.377C552.753 352.125 557.173 337.371 550.249 323.216C548.147 318.901 544.369 315.855 541.468 312.007C537.438 306.689 534.776 300.626 531.786 294.834C528.423 288.292 526.027 287.354 519.074 284.917C515.352 283.658 516.16 282.604 513.566 279.816C510.594 276.627 505.085 275.352 500.544 275.064C494.865 274.686 488.512 277.499 482.927 276.463C476.039 275.154 475.464 267.565 473.672 262.607C471.88 257.649 470.105 254.623 464.424 252.806C462.181 252.086 459.742 252.323 458.466 250.408C455.725 246.227 462.024 235.544 462.492 231.006C463.102 225.019 461.298 219.341 461.32 213.429C461.338 206.233 466.333 199.835 466.445 192.785C465.531 204.496 465.504 216.259 466.366 227.973C466.761 233.329 468.81 235.676 471.352 240.238C473.686 244.365 474.224 247.48 479.075 250.136C486.673 254.334 496.262 255.422 504.542 258.168C511.283 260.41 514.604 262.742 516.614 268.363C518.475 273.549 521.45 278.034 528.269 279.858C535.854 281.861 541.315 277.066 546.766 281.986C551.649 286.406 558.198 293.922 559.445 299.998C561.349 309.264 559.803 320.549 559.94 329.991C560.083 336.391 559.441 342.785 558.031 349.03C556.331 356.356 552.59 361.621 549.18 366.377Z" fill="url(#paint0_linear_540_16)"/>
<path d="M404.89 362.276C411.299 372.573 430.407 369.41 439.214 376.015C442.07 378.171 440.608 378.831 445.167 378.796C452.916 378.715 457.931 371.802 465.744 373.749C472.16 375.326 478.571 380.202 484.358 382.848C491.05 385.917 498.876 387.804 505.285 391.252C512.944 395.368 514.985 402.788 514.152 409.911C513.045 419.249 509.423 429.026 505.519 437.708C511.386 430.773 515.477 422.418 521.467 415.317C525.133 411.033 530.429 407.579 533.924 403.521C537.931 398.883 538.262 388.609 539.283 383.216C540.018 379.258 540.616 374.842 538.974 371.002C534.484 370.499 530.244 370.863 526.472 368.237C518.713 362.896 516.685 353.125 509.522 347.242C504.348 343.01 500.654 344.511 494.11 344.995C490.688 345.24 489.846 343.86 486.455 343.674C484.964 349.959 493.867 353.506 494.831 359.255C489.312 360.906 482.824 360.072 477.639 362.58C476.539 363.114 476.142 364.715 474.974 365.032C471.288 366.017 463.517 364.443 460.132 363.873C439.797 360.42 426.417 350.313 425.598 332.369C425.243 324.543 428.037 317.008 427.944 309.294C419.721 307.437 408.729 322.182 405.54 326.653C396.605 339.429 400.022 352.376 404.89 362.276Z" fill="url(#paint1_linear_540_16)"/>
<path opacity="0.67" d="M440.398 429.124C437.729 433.28 435.154 439.835 436.677 444.405C439.172 451.941 440.434 449.514 450 452.065C465.932 456.336 472.904 472.734 491.677 466.495C520.205 457.005 534.157 424.364 544.232 404.686C553.133 387.173 547.375 370.65 547.788 352.162C548.352 327.224 556.318 303.711 552.111 278.613C549.351 262.066 541.933 239.748 530.582 224.971C511.25 199.909 487.772 226.019 474.932 240.747C455.778 262.679 433.481 283.122 419.171 307.338C408.917 324.698 400.188 347.192 420.694 362.534C428.458 368.342 436.914 370.551 441.727 378.616C446.402 386.342 444.552 394.84 446.138 402.961C453.109 438.333 503.222 404.119 513.55 387.456C514.448 388.25 516.452 388.953 517.328 389.699C525.984 378.562 535.061 346.983 510.754 340.696C497.722 337.335 493.325 347.615 484.607 355.069C474.12 341.793 499.573 318.93 507.634 307.568C532.423 324.297 540.471 340.136 534.528 364.725C531.023 379.242 525.959 393.77 521.593 408.153C519.251 415.864 516.841 425.648 507.724 430.277C503.202 432.604 495.232 433.737 490.103 435.742C478.807 440.145 470.346 442.001 457.581 438.452C434.594 432.09 436.379 414.068 428.295 400.495C433.71 412.203 433.685 425.108 440.398 429.124Z" fill="url(#paint2_linear_540_16)"/>
<path opacity="0.91" d="M444.298 435.711C444.852 441.633 455.695 445.355 461.194 448.801C464.958 451.152 469.159 457.023 473.128 458.586C478.813 460.883 478.828 458.412 485.026 457.047C490.767 455.783 496.236 456.602 502.077 457.318C526.387 425.669 544.563 391.343 543.639 353.632C543.267 338.526 538.226 324.39 539.052 309.387C539.572 300.028 549.708 242.583 523.309 243.387C516.457 243.59 514.818 249.345 510.066 251.788C505.314 254.231 499.605 254.189 494.07 256.104C461.713 267.32 446.036 296.803 444.581 321.979C443.906 333.506 439.318 351.316 447.088 362.006C452.041 368.813 463.363 370.372 467.532 377.419C470.931 383.182 466.568 390.597 471.409 396.119C478.265 403.94 486.023 395.763 493.629 391.146C499.632 387.444 505.892 384.176 512.362 381.369C513.787 380.756 517.054 381.228 518.279 380.396C525.904 375.251 526.725 362.119 521.524 355.8C508.581 340.003 480.425 353.264 474.293 366.336C477.968 368.277 490.374 373.32 491.04 376.641C491.641 379.589 482.799 388.096 480.544 390.387C476.396 386.471 471.741 382.007 469.636 377.128C467.958 373.252 468.811 369.379 466.318 365.55C464.245 362.387 460.532 360.564 457.938 357.753C446.584 345.423 456.03 326.827 464.885 315.285C471.067 315.707 478.659 317.207 483.418 314.38C488.637 311.249 489.101 303.892 489.58 299.45C490.536 290.602 489.645 280.98 496.807 273.286C504.593 264.906 511.312 266.236 517.924 273.538C523.677 279.854 523.07 286.381 524.168 293.51C525.147 299.859 528.253 304.37 531.363 310.176C539.514 325.574 539.993 341.497 538.648 357.499C537.536 368.418 535.483 379.22 532.51 389.785C529.267 402.159 527.843 414.814 521.061 426.484C509.865 445.712 483.59 460.671 457.961 444.672L444.298 435.711Z" fill="url(#paint3_linear_540_16)"/>
<path d="M456.902 362.377C465.218 367.426 467.906 375.589 470.886 382.832C471.879 385.247 472.77 394.1 475.911 395.709C481.942 398.804 503.546 392.55 509.462 389.334C520.992 383.088 528.447 356.209 529.345 345.716C530.237 335.644 525.234 311.553 508.538 309.297C506.791 309.065 490.02 313.8 488.452 314.399C466.463 322.961 467.273 340.689 473.635 355.458C476.839 362.933 472.402 372.698 477.302 379.108C480.941 376.539 493.303 365.413 497.284 370.766C499.35 373.545 493.519 386.526 490.091 388.642C474.921 398.332 467.445 371.432 456.902 362.377Z" fill="#79FBFF"/>
<path d="M522.907 345.662C529.473 335.5 514.042 317.816 498.66 319.743C486.078 321.306 481.859 331.686 479.297 339.693C477.82 344.323 474.08 351.783 480.063 354.901C483.477 356.67 490.314 360.401 494.09 361.312C498.379 362.364 499.474 359.875 501.593 357.114C505.757 351.675 501.027 348.889 493.6 347.584C494.862 343.634 502.092 333.962 508.578 334.137C516.538 334.347 517.807 340.568 517.68 344.788C517.457 352.052 519.518 359.713 515.799 366.587C513.933 370.023 507.464 374.094 508.424 377.851C517.434 369.359 523.83 357.791 522.907 345.662Z" fill="white"/>
<path d="M539.198 230.654C541.506 217.497 558.766 184.98 533.971 182.212C528.355 181.595 522.954 185.635 517.723 184.976C511.067 184.163 505.403 174.586 500.7 170.11C496.754 166.353 493.795 163.128 488.561 161.114C485.415 159.864 482.271 159.934 479.694 157.591C475.047 153.367 475.295 145.323 474.653 139.664C473.495 129.256 471.574 118.947 468.906 108.821C465.625 96.4026 465.952 84.8698 467.604 72.2666C468.177 67.898 468.79 62.5106 467.426 58.543C466.333 77.4997 467.114 101.596 477.686 117.883C482.509 125.312 488.767 125.495 497.054 127.786C506.748 130.656 516.774 132.251 526.879 132.529C537.585 132.807 539.841 137.281 546.239 143.787C547.962 145.553 550.211 145.865 552.042 147.657C557.723 153.216 558.188 163.97 558.947 171.274C559.914 180.621 561.639 189.068 558.998 198.309C555.433 210.546 548.148 219.198 539.198 230.654Z" fill="url(#paint4_linear_540_16)"/>
<path d="M548.119 198.235C550.872 187.245 536.283 188.284 528.2 188.995C518.447 189.86 512.639 187.009 506.82 180.38C499.518 171.953 493.286 161.815 487.398 152.678C484.881 148.764 481.794 143.774 486.667 140.565C491.77 137.18 504.292 136.359 510.327 136.995C526.468 138.678 536.069 146.603 542.228 158.286C545.221 164.063 547.493 170.185 548.991 176.516C550.828 183.958 548.562 189.175 548.119 198.235Z" fill="url(#paint5_linear_540_16)"/>
<path d="M459.604 248.868C457.913 242.844 461.973 234.885 464.29 229.417C467.68 221.423 471.921 214.893 477.037 207.694C478.534 205.595 480.607 202.63 476.019 202.329C479.441 193.784 487.743 183.793 495.117 177.157C504.522 168.695 516.49 163.524 527.967 159.844C520.422 159.845 511.561 162.726 504.347 164.591C493.593 167.37 488.066 173.244 478.87 177.631C475.425 179.28 474.048 179.114 471.345 181.662C467.519 185.256 464.792 189.862 463.482 194.946C459.014 211.21 460.291 228.238 459.604 248.868Z" fill="url(#paint6_linear_540_16)"/>
<path d="M458.454 249.605C457.446 248.894 457.62 246.989 457.648 245.994C457.686 244.462 457.961 242.946 458.463 241.498C458.999 240.157 459.654 238.867 460.419 237.643C461.367 235.764 462.026 233.752 462.373 231.677C463.744 225.402 465.688 219.328 469.853 213.805C472.302 210.654 475.337 206.852 479.254 204.863C476.974 208.606 474.887 212.464 473.002 216.422C471.548 219.589 470.835 222.936 469.43 226.116C467.977 229.016 466.174 231.726 464.06 234.186C462.508 236.003 461.383 238.144 460.767 240.453C460.151 242.761 460.061 245.179 460.502 247.527C460.718 249.069 461.059 250.59 461.521 252.077C459.456 252.248 457.872 250.04 458.454 249.605Z" fill="url(#paint7_linear_540_16)"/>
<path d="M476.213 202.117C475.278 201.335 477.069 198.809 477.416 198.082C478.472 195.82 479.467 193.545 480.594 191.32C482.589 187.31 484.893 182.717 488.92 179.819C494.077 176.099 498.44 171.73 504.082 168.414C509.725 165.202 515.738 162.688 521.987 160.926C523.53 160.483 526.257 159.458 528.003 159.762C526.167 161.328 522.798 161.982 520.387 162.772C516.765 164.093 513.274 165.748 509.958 167.715C507.737 168.767 505.601 169.988 503.567 171.368C501.26 173.166 498.882 174.892 496.621 176.775C491.297 180.916 486.726 185.944 483.108 191.636C480.941 195.176 477.997 198.499 476.213 202.117Z" fill="url(#paint8_linear_540_16)"/>
<path d="M477.961 307.415C479.446 305.304 482.605 304.994 485.204 304.472C489.464 303.688 493.679 302.682 497.833 301.458C502.896 299.889 507.577 297.284 511.58 293.809C509.973 296.77 505.097 299.499 501.986 301.26C498.721 303.206 495.239 304.761 491.61 305.893C488.513 306.839 481.533 309.043 477.961 307.415Z" fill="url(#paint9_linear_540_16)"/>
<path style="mix-blend-mode:screen" d="M628.386 357.548C639.634 266.463 590.867 185.476 519.462 176.658C448.057 167.841 381.054 234.531 369.806 325.616C358.559 416.701 407.325 497.688 478.73 506.506C550.135 515.323 617.138 448.632 628.386 357.548Z" fill="url(#paint10_radial_540_16)"/>
<path style="mix-blend-mode:screen" d="M603.143 235.811C611.775 144.481 575.289 66.3333 521.649 61.2631C468.009 56.193 417.527 126.12 408.895 217.45C400.262 308.78 436.748 386.928 490.388 391.998C544.028 397.068 594.51 327.141 603.143 235.811Z" fill="url(#paint11_radial_540_16)"/>
<path style="mix-blend-mode:color-dodge" d="M578.235 351.355C585.12 295.601 555.271 246.028 511.566 240.631C467.861 235.234 426.849 276.056 419.964 331.81C413.079 387.564 442.928 437.137 486.633 442.534C530.339 447.931 571.35 407.109 578.235 351.355Z" fill="url(#paint12_radial_540_16)"/>
<path d="M414.615 432.591C422.998 427.375 430.767 417.712 441.39 417.185C438.465 425.378 449.323 424.387 455.567 424.714C462.302 425.073 477.258 430.372 483.127 426.351C488.995 422.33 485.167 416.428 492.175 413.158C499.691 409.679 510.917 410.445 518.022 405.604C526.509 399.838 531.075 387.257 536.204 379.183C544.68 365.848 555.721 350.276 557.908 334.923C559.703 322.358 560.307 308.478 558.565 297.309C562.082 307.715 562.702 317.764 561.246 329.398C559.901 340.908 559.99 352.541 561.512 364.029C563.178 378.448 564.888 382.541 553.587 392.508C537.872 406.351 522.864 423.204 513.442 440.985C509.251 448.87 508.195 451.156 498.76 453.945C467.382 463.174 443.894 450.603 414.615 432.591Z" fill="url(#paint13_linear_540_16)"/>
<path d="M414.725 433.111C421.852 426.148 435.043 426.309 444.548 424.445C446.891 427.949 455.434 428.492 459.824 429.209C462.568 429.598 465.331 429.842 468.1 429.94C471.839 430.144 479.267 431.413 482.718 430.101C484.118 429.571 488.785 425.663 489.728 423.699C490.224 422.688 489.299 420.478 489.618 419.272C490.397 416.334 492.17 415.714 495.433 414.915C500.549 413.724 506.021 415.023 510.872 413.96C512.797 413.535 512.937 413.034 514.562 411.944C518.623 409.238 523.368 407.226 527.37 404.483C529.71 402.877 532.067 400.96 532.526 398.484C532.932 396.356 531.876 394.12 532.38 391.826C533.668 386.257 536.879 380.431 539.933 375.394C542.988 370.357 546.841 365.597 549.965 360.741C556.027 351.326 557.777 342.347 558.613 331.973C558.273 353.401 537.649 368.186 529.977 387.542C527.154 394.621 522.548 402.212 514.448 406.257C503.568 411.673 488.431 409.442 480.661 419.154C486.958 416.855 486.395 421.332 482.756 424.656C479.118 427.981 473.155 425.043 468.366 424.536C460.69 423.742 451.904 424.946 444.728 422.157C436.61 419.006 447.787 416.809 451.177 414.08C437.731 408.073 420.419 424.278 414.725 433.111Z" fill="url(#paint14_linear_540_16)"/>
<path d="M407.219 318.08C422.767 304.978 450.244 303.531 471.01 304.017C478.744 304.14 484.408 304.661 489.381 299.691C499.033 290.069 505.214 279.205 521.392 275.516C537.33 271.871 552.6 260.42 559.929 247.487C564.753 239.012 565.671 224.262 565.455 215.192C565.38 212.384 563.727 208.472 563.211 205.489C561.852 197.396 563.166 189.453 563.726 181.33C564.179 174.728 564.811 167.398 560.603 162.018C555.665 155.715 549.778 148.857 545.092 142.582C549.482 150.831 548.915 162.372 552.119 171.335C553.888 176.28 556.026 178.305 555.406 183.38C554.359 191.927 548.5 200.638 544.752 208.518C542.085 214.101 540.609 223.241 535.273 227.642C532.94 229.572 530.999 229.469 527.585 230.662C520.228 233.256 516.705 236.09 512.304 241.346C501.183 254.362 483.3 261.13 471.598 273.754C465.375 280.456 462.352 287.292 453.901 291.548C439.983 298.643 423.342 302.013 407.219 318.08Z" fill="url(#paint15_linear_540_16)"/>
<path d="M470.965 276.641C472.399 268.676 485.016 263.456 492.013 259.381C502.907 253.077 510.251 243.803 520.388 236.851C530.525 229.9 540.943 226.383 545.071 214.947C548.106 206.599 553.56 199.214 556.857 190.991C559.555 184.257 559.976 175.844 559.788 168.801C559.521 159.201 555.088 148.337 546.511 141.64C542.198 138.285 537.424 134.587 532.15 132.836C538.802 139.91 543.59 145.827 545.355 154.779C546.686 161.552 546.56 169.514 550.408 175.656C552.081 178.321 552.918 180.014 552.685 183.356C552.342 189.12 549.211 194.407 546.61 199.607C543.723 205.39 542.641 211.622 540.185 217.496C538.58 221.558 535.729 225.006 532.041 227.345C526.571 230.413 520.774 231.436 516.004 235.75C507.778 243.2 500.177 250.551 491.229 257.389C486.373 261.054 480.454 264.486 476.653 268.912C474.527 271.385 473.439 274.942 470.965 276.641Z" fill="url(#paint16_linear_540_16)"/>
<path d="M410.808 367.013C399.909 362.258 402.27 340.491 406.246 333.274C411.815 323.204 427.818 310.936 441.964 310.561C441.743 313.94 444.117 313.234 445.485 315.415C448.177 319.643 444.842 323.428 444.485 327.836C454.249 326.216 463.067 321.559 473.164 320.136C478.91 319.328 483.951 320.583 488.332 318.11C492.992 315.449 496.422 310.191 500.267 306.738C504.72 302.754 509.434 298.895 512.724 294.15C514.725 291.243 516.718 288.133 518.539 285.211C510.603 297.079 495.669 307.012 478.671 307.15C479.805 302.958 482.991 298.715 484.337 294.755C477.086 293.668 467.927 295.694 461.386 298.216C454.145 301.028 452.655 301.256 445.042 301.771C432.195 302.646 417.76 305.296 410.611 314.417C405.605 320.778 403.217 326.869 395.951 331.276C390.296 334.688 393.238 338.249 394.438 344.229C395.462 349.258 396.018 354.281 399.776 358.514C401.909 360.947 404.979 361.691 407.192 363.597C408.79 364.942 409.971 365.309 410.808 367.013Z" fill="url(#paint17_linear_540_16)"/>
<path d="M414.109 310.826C417.862 307.144 425.004 304.523 430.421 303.266C437.452 301.602 444.742 300.243 451.898 299.001C460.124 297.58 468.316 296.027 476.475 294.342C478.701 293.885 483.383 292.844 485.021 294.705C480.158 293.525 472.881 295.568 468.198 296.657C462.709 297.925 458.152 300.923 452.701 302.036C445.12 303.595 437.247 303.95 429.566 305.015C424.974 305.65 416.32 306.832 414.109 310.826Z" fill="url(#paint18_linear_540_16)"/>
<path d="M511.522 297.366C514.976 287.55 535.158 280.95 544.972 277.76C553.411 275.015 552.591 267.77 557.581 261.661C561.373 257.019 565.837 253.864 568.822 248.646C572.707 241.919 575.314 236.336 571.288 230.047C569.662 227.49 567.543 216.662 564.104 217.207C569.601 224.491 569.302 235.041 566.023 242.869C564.078 247.527 560.237 251.484 557.588 255.928C555.553 259.606 553.219 263.111 550.609 266.407C548.263 269.177 545.564 272.96 541.949 274.774C537.814 276.843 533.237 275.835 528.809 276.688C516.311 279.008 508.547 285.277 503.016 295.228C505.886 293.523 509.982 290.889 513.438 290.764C513.457 293.105 512.791 295.4 511.522 297.366Z" fill="url(#paint19_linear_540_16)"/>
<g style="mix-blend-mode:soft-light" opacity="0.5">
<path d="M468.35 288.047C469.424 274.787 481.417 267.302 494.845 261.53C498.987 259.749 512.804 251.465 514.905 258.874C516.234 263.537 512.149 270.045 509.627 274.01C506.368 279.14 501.405 284.219 497.396 289C495.623 291.095 491.656 296.201 487.871 295.913C486.373 295.794 485.204 294.672 484.002 294.089C481.909 293.01 479.634 292.327 477.293 292.075C474.636 291.733 465.198 292.399 468.35 288.047Z" fill="#9FD6D6"/>
</g>
<g style="mix-blend-mode:soft-light" opacity="0.5">
<path d="M517.518 270.419C520.801 268.385 521.348 263.392 521.517 260.312C521.78 255.075 520.045 250.25 522.177 245.151C524.807 238.908 532.022 233.937 537.528 229.395C541.429 226.158 545.14 222.799 549.136 219.648C550.946 218.214 555.073 213.614 557.86 213.358C562.268 212.948 562.526 221.636 562.488 224.034C562.351 232.643 558.098 240.672 553.707 248.29C546.517 260.769 535.926 270.58 517.518 270.419Z" fill="#9FD6D6"/>
</g>
<g style="mix-blend-mode:soft-light" opacity="0.5">
<path d="M462.654 221.45C465.121 217.136 469.526 213.871 471.933 209.604C474.166 205.669 474.302 200.874 475.736 196.699C477.638 190.996 480.568 185.689 484.38 181.041C486.313 178.672 489.347 176.43 490.742 173.945C482.789 174.023 470.076 181.533 466.793 187.37C463.19 193.729 462.792 200.655 461.844 207.501C461.291 212.122 460.722 216.982 462.654 221.45Z" fill="#9FD6D6"/>
</g>
<g style="mix-blend-mode:soft-light" opacity="0.5">
<path d="M441.377 445.817C437.682 445.135 437.588 441.979 439.482 439.79C443.527 435.057 452.887 434.006 459.213 432.907C468.07 431.187 477.166 431.084 486.06 432.602C492.326 433.793 497.704 435.713 500.212 440.898C509.829 460.685 450.344 457.389 441.377 445.817Z" fill="#9FD6D6"/>
</g>
<g style="mix-blend-mode:soft-light" opacity="0.5">
<path d="M505.392 437.348C503.551 438.458 502.926 435.522 502.64 434.653C501.43 431.147 501.637 427.307 503.217 423.952C504.99 420.31 508.942 417.674 512.944 415.651C515.798 414.173 521.69 410.992 525.383 411.819C530.893 412.986 524.012 422.591 522.783 424.503C518.448 430.839 512.252 437.325 505.392 437.348Z" fill="#9FD6D6"/>
</g>
<g style="mix-blend-mode:soft-light" opacity="0.5">
<path d="M442.877 309.147C446.476 309.085 450.824 310.953 451.192 314.197C451.35 315.567 448.892 318.562 450.017 319.456C451.143 320.349 456.025 318.807 456.951 318.642C461.306 317.788 465.649 316.981 470.061 316.32C471.263 316.147 478.377 316.056 479.29 315.159C480.204 314.262 479.776 314.819 479.421 313.734C478.358 310.407 471.44 310.285 471.138 306.658C471.012 304.785 475.468 302.073 474.079 300.42C471.914 297.819 462.349 301.949 460.323 302.672C454.291 304.855 447.954 306.661 442.877 309.147Z" fill="#9FD6D6"/>
</g>
<path style="mix-blend-mode:screen" d="M584.857 410.425C586.127 381.576 541.364 356.174 484.877 353.689C428.39 351.203 381.569 372.575 380.3 401.424C379.03 430.273 423.793 455.674 480.28 458.16C536.767 460.646 583.588 439.274 584.857 410.425Z" fill="url(#paint20_radial_540_16)"/>
<path d="M528.415 193.595C527.196 186.499 526.727 178.324 528.685 171.339C529.473 168.545 528.804 163.881 531.034 161.637C533.313 172.228 532.958 184.696 528.415 193.595Z" fill="#93FFF8"/>
<path d="M533.166 123.926C531.198 126.293 531.54 132.691 533.697 135.088C538.364 133.459 535.673 126.976 534.989 123.955L533.166 123.926Z" fill="#93FFF8"/>
<path d="M506.058 221.615C505.323 223.39 506 225.32 506.788 227.036C509.209 225.623 510.578 221.747 507.905 220.133L506.058 221.615Z" fill="#93FFF8"/>
<path d="M533.022 317.442C528.865 314.078 527.694 287.374 535.652 290.007C540.484 291.595 540.103 314.124 533.022 317.442Z" fill="#93FFF8"/>
<path d="M508.074 78.9442C507.092 81.8311 506.641 86.1177 509.376 88.296C513.021 85.3914 513.001 81.3252 510.041 78.1719L508.074 78.9442Z" fill="#93FFF8"/>
<path d="M70 709.5H950.5" stroke="#11D7FF"/>
</g>
<defs>
<linearGradient id="paint0_linear_540_16" x1="506.752" y1="370.713" x2="517.827" y2="202.724" gradientUnits="userSpaceOnUse">
<stop stop-color="#00EEFF"/>
<stop offset="1" stop-color="#56E3FF"/>
</linearGradient>
<linearGradient id="paint1_linear_540_16" x1="467.932" y1="442.292" x2="476.059" y2="319.018" gradientUnits="userSpaceOnUse">
<stop stop-color="#00DDFF"/>
<stop offset="1" stop-color="#56EEFF"/>
</linearGradient>
<linearGradient id="paint2_linear_540_16" x1="451.258" y1="466.622" x2="499.055" y2="214.886" gradientUnits="userSpaceOnUse">
<stop offset="0.01" stop-color="#2BF8FF"/>
<stop offset="1" stop-color="#00EEFF"/>
</linearGradient>
<linearGradient id="paint3_linear_540_16" x1="472.972" y1="462.565" x2="505.161" y2="244.337" gradientUnits="userSpaceOnUse">
<stop stop-color="#72FAFF"/>
<stop offset="0.98" stop-color="#00D5FF"/>
</linearGradient>
<linearGradient id="paint4_linear_540_16" x1="509.091" y1="235.59" x2="520.113" y2="68.4156" gradientUnits="userSpaceOnUse">
<stop stop-color="#00FFF7"/>
<stop offset="1" stop-color="#56EEFF"/>
</linearGradient>
<linearGradient id="paint5_linear_540_16" x1="517.066" y1="203.123" x2="520.941" y2="144.355" gradientUnits="userSpaceOnUse">
<stop stop-color="#00DDFF"/>
<stop offset="0.99" stop-color="#56FFF9"/>
</linearGradient>
<linearGradient id="paint6_linear_540_16" x1="492.33" y1="257.613" x2="498.456" y2="164.699" gradientUnits="userSpaceOnUse">
<stop offset="0.01" stop-color="#2C828B"/>
<stop offset="1" stop-color="#0A4059"/>
</linearGradient>
<linearGradient id="paint7_linear_540_16" x1="469.083" y1="259.269" x2="472.257" y2="211.116" gradientUnits="userSpaceOnUse">
<stop stop-color="#00D5FF"/>
<stop offset="1" stop-color="#56F4FF"/>
</linearGradient>
<linearGradient id="paint8_linear_540_16" x1="502.778" y1="210.471" x2="505.771" y2="165.074" gradientUnits="userSpaceOnUse">
<stop stop-color="#00F7FF"/>
<stop offset="1" stop-color="#56E3FF"/>
</linearGradient>
<linearGradient id="paint9_linear_540_16" x1="496.918" y1="315.81" x2="497.972" y2="299.815" gradientUnits="userSpaceOnUse">
<stop stop-color="#00E6FF"/>
<stop offset="1" stop-color="#56FFF9"/>
</linearGradient>
<radialGradient id="paint10_radial_540_16" cx="0" cy="0" r="1" gradientUnits="userSpaceOnUse" gradientTransform="translate(493.421 336.317) rotate(2.84201) scale(129.927 166.506)">
<stop stop-color="#00F7FF"/>
<stop offset="0.16" stop-color="#0098CA"/>
<stop offset="0.39" stop-color="#005A83"/>
<stop offset="0.6" stop-color="#00384B"/>
<stop offset="0.78" stop-color="#001222"/>
<stop offset="0.92" stop-color="#000509"/>
<stop offset="1"/>
</radialGradient>
<radialGradient id="paint11_radial_540_16" cx="0" cy="0" r="1" gradientUnits="userSpaceOnUse" gradientTransform="translate(505.026 232.774) rotate(3.30442) scale(97.5559 166.423)">
<stop stop-color="#00FFEE"/>
<stop offset="0.16" stop-color="#00B6CA"/>
<stop offset="0.39" stop-color="#008383"/>
<stop offset="0.6" stop-color="#00464B"/>
<stop offset="0.78" stop-color="#00221D"/>
<stop offset="0.92" stop-color="#000809"/>
<stop offset="1"/>
</radialGradient>
<radialGradient id="paint12_radial_540_16" cx="0" cy="0" r="1" gradientUnits="userSpaceOnUse" gradientTransform="translate(493.412 336.316) rotate(2.84201) scale(79.5315 101.923)">
<stop stop-color="#00EEFF"/>
<stop offset="0.16" stop-color="#00A8CA"/>
<stop offset="0.39" stop-color="#007283"/>
<stop offset="0.6" stop-color="#00414B"/>
<stop offset="0.78" stop-color="#002220"/>
<stop offset="0.92" stop-color="#000809"/>
<stop offset="1"/>
</radialGradient>
<linearGradient id="paint13_linear_540_16" x1="487.214" y1="460.48" x2="503.219" y2="293.769" gradientUnits="userSpaceOnUse">
<stop offset="0.01" stop-color="#2C738B"/>
<stop offset="1" stop-color="#0A4E59"/>
</linearGradient>
<linearGradient id="paint14_linear_540_16" x1="486.021" y1="444.399" x2="493.247" y2="334.795" gradientUnits="userSpaceOnUse">
<stop stop-color="#00FFF7"/>
<stop offset="1" stop-color="#56F4FF"/>
</linearGradient>
<linearGradient id="paint15_linear_540_16" x1="485.474" y1="329.662" x2="497.562" y2="146.313" gradientUnits="userSpaceOnUse">
<stop offset="0.01" stop-color="#2C8B8B"/>
<stop offset="1" stop-color="#0A3D59"/>
</linearGradient>
<linearGradient id="paint16_linear_540_16" x1="514.346" y1="286.171" x2="524.044" y2="139.078" gradientUnits="userSpaceOnUse">
<stop stop-color="#00F7FF"/>
<stop offset="1" stop-color="#56FFDD"/>
</linearGradient>
<linearGradient id="paint17_linear_540_16" x1="454.416" y1="376.386" x2="460.223" y2="288.301" gradientUnits="userSpaceOnUse">
<stop offset="0.01" stop-color="#2C768B"/>
<stop offset="1" stop-color="#0A4359"/>
</linearGradient>
<linearGradient id="paint18_linear_540_16" x1="451.543" y1="319.737" x2="452.945" y2="298.47" gradientUnits="userSpaceOnUse">
<stop stop-color="#00F7FF"/>
<stop offset="1" stop-color="#56E3FF"/>
</linearGradient>
<linearGradient id="paint19_linear_540_16" x1="538.63" y1="306.042" x2="544.112" y2="222.892" gradientUnits="userSpaceOnUse">
<stop offset="0.01" stop-color="#2C858B"/>
<stop offset="1" stop-color="#0A4C59"/>
</linearGradient>
<radialGradient id="paint20_radial_540_16" cx="0" cy="0" r="1" gradientUnits="userSpaceOnUse" gradientTransform="translate(485.676 402.078) rotate(2.92602) scale(102.607 52.4078)">
<stop stop-color="#00FFFF"/>
<stop offset="0.16" stop-color="#00BDCA"/>
<stop offset="0.39" stop-color="#007A83"/>
<stop offset="0.6" stop-color="#003F4B"/>
<stop offset="0.78" stop-color="#001C22"/>
<stop offset="0.92" stop-color="#000809"/>
<stop offset="1"/>
</radialGradient>
<clipPath id="clip0_540_16">
<rect width="1000" height="1000" fill="white"/>
</clipPath>
</defs>
</svg>
