<svg width="300" height="300" viewBox="0 0 300 300" fill="none" xmlns="http://www.w3.org/2000/svg">
<path d="M149.5 297C229.305 297 294 232.305 294 152.5C294 72.6949 229.305 8 149.5 8C69.6949 8 5 72.6949 5 152.5C5 232.305 69.6949 297 149.5 297Z" fill="#C6D5DB"/>
<path d="M149.5 297C229.305 297 294 232.305 294 152.5C294 72.6949 229.305 8 149.5 8C69.6949 8 5 72.6949 5 152.5C5 232.305 69.6949 297 149.5 297Z" fill="url(#paint0_radial_8_1046)"/>
<path d="M149.5 297C229.305 297 294 232.305 294 152.5C294 72.6949 229.305 8 149.5 8C69.6949 8 5 72.6949 5 152.5C5 232.305 69.6949 297 149.5 297Z" stroke="black" stroke-width="6"/>
<path d="M112.261 118.18V209.683L112.276 209.804C113.688 221.34 103.976 233.663 88.5541 237.713L87.8158 237.899C70.9731 241.984 55.5269 234.379 52.5277 222.054C49.5293 209.731 59.7576 195.903 76.6029 191.816C84.3266 189.942 91.8802 190.544 98.0326 192.982L100.769 194.066L100.77 191.124L100.807 72.0378C101.128 71.902 101.513 71.7412 101.961 71.5573C103.508 70.9216 105.798 70.0117 108.75 68.9255C114.655 66.7527 123.205 63.8732 133.76 61.0593C154.452 55.5426 182.801 50.2908 213.999 51.0788V191.329L213.993 191.648C213.792 202.554 204.038 213.576 189.394 217.129C172.811 221.15 157.585 213.844 154.255 201.859L154.105 201.285C151.107 188.96 161.336 175.133 178.181 171.048C185.762 169.209 193.172 169.758 199.262 172.086L201.977 173.124V101.169L199.842 101.313C175.503 102.956 153.961 107.05 138.505 110.733C130.775 112.575 124.561 114.316 120.274 115.598C118.131 116.238 116.47 116.765 115.341 117.132C114.776 117.315 114.345 117.459 114.053 117.558C113.907 117.607 113.796 117.645 113.721 117.671C113.683 117.684 113.654 117.693 113.634 117.7C113.624 117.704 113.617 117.706 113.611 117.708C113.609 117.709 113.607 117.71 113.605 117.711H113.603C113.603 117.711 113.602 117.712 114.261 119.6L113.603 117.711L112.261 118.18Z" fill="#0B2F41"/>
<path d="M113.603 117.711H113.605C113.607 117.71 113.609 117.709 113.611 117.708C113.617 117.706 113.624 117.704 113.634 117.7C113.654 117.693 113.683 117.684 113.721 117.671C113.796 117.645 113.907 117.607 114.053 117.558C114.345 117.459 114.776 117.315 115.341 117.132C116.47 116.765 118.131 116.238 120.274 115.598C124.561 114.316 130.775 112.575 138.505 110.733C153.961 107.05 175.503 102.956 199.842 101.313L201.977 101.169V173.124L199.262 172.086C193.172 169.758 185.762 169.209 178.181 171.048C161.336 175.133 151.107 188.96 154.105 201.285L154.255 201.859C157.585 213.844 172.811 221.15 189.394 217.129C204.038 213.576 213.792 202.554 213.993 191.648L213.999 191.329V51.0788C182.801 50.2908 154.452 55.5426 133.76 61.0593C123.205 63.8732 114.655 66.7527 108.75 68.9255C105.798 70.0117 103.508 70.9216 101.961 71.5573C101.513 71.7412 101.128 71.902 100.807 72.0378L100.77 191.124L100.769 194.066L98.0326 192.982C91.8802 190.544 84.3266 189.942 76.6029 191.816C59.7576 195.903 49.5293 209.731 52.5277 222.054C55.5269 234.379 70.9731 241.984 87.8158 237.899L88.5541 237.713C103.976 233.663 113.688 221.34 112.276 209.804L112.261 209.683V118.18L113.603 117.711ZM113.603 117.711C113.603 117.711 113.602 117.712 114.261 119.6L113.603 117.711Z" stroke="black" stroke-width="4"/>
<defs>
<radialGradient id="paint0_radial_8_1046" cx="0" cy="0" r="1" gradientUnits="userSpaceOnUse" gradientTransform="translate(149.5 152.5) rotate(90) scale(147.5)">
<stop stop-color="#17D6FD"/>
<stop offset="1" stop-color="#08C2E7"/>
</radialGradient>
</defs>
</svg>
